<svg width="16" height="14" viewBox="0 0 16 14" fill="none" xmlns="http://www.w3.org/2000/svg">
<path fill-rule="evenodd" clip-rule="evenodd" d="M8.19325 0.5C8.43394 0.5 8.65628 0.628317 8.77688 0.83661L15.5223 12.4875C15.6431 12.6962 15.6434 12.9538 15.5229 13.1627C15.4025 13.3715 15.1797 13.5 14.9386 13.5H1.44787C1.2068 13.5 0.984043 13.3715 0.86358 13.1627C0.743139 12.9538 0.743422 12.6962 0.864239 12.4875L7.60961 0.83661L7.65902 0.762174C7.78568 0.598033 7.98261 0.5 8.19325 0.5ZM8.19259 4.79251C8.54174 4.79223 8.82954 5.05725 8.86449 5.39722L8.86779 5.46639L8.87042 8.53277L8.86713 8.60128C8.83301 8.9415 8.54576 9.20753 8.19654 9.20797C7.84727 9.20825 7.55943 8.94273 7.52464 8.6026L7.52134 8.53343L7.51871 5.46771L7.522 5.39854C7.5563 5.05844 7.84341 4.79285 8.19259 4.79251ZM7.51871 10.3726V10.6796C7.51881 11.052 7.82077 11.3541 8.19325 11.3541C8.56572 11.3541 8.86769 11.052 8.86779 10.6796V10.3726C8.86769 10.0001 8.56572 9.69806 8.19325 9.69806C7.82077 9.69806 7.51881 10.0001 7.51871 10.3726Z" fill="#636363"/>
</svg>
